<svg version="1.1" xmlns="http://www.w3.org/2000/svg" width="118" height="31.937" viewBox="0 0 118 31.937"><path d="M0 0h118v31.937H0z" fill="#1A91FF"/><path d="M0 0h118v31.937H0zm3.362 3.026v26.222H114.974V3.026z" fill="#000000"/><path d="M0 0h118v31.937H0zm1.681 1.008v30.256h114.974V1.008z" fill="#0868D0"/><path d="M67.741 9.981c1.603 1.483 2.765 2.805 2.97 5.016 0.109 4.964 0.109 4.964 -1.457 6.855 -1.591 1.607 -2.711 2.077 -4.958 2.122 -1.889 -0.016 -3.05 -0.082 -4.455 -1.45 -1.986 -2.207 -2.173 -3.903 -2.099 -6.822 0.141 -2.17 0.604 -3.591 2.246 -5.091 2.079 -1.707 5.398 -1.766 7.753 -0.631" fill="#F9FCFF"/><path d="M74.296 9.749h4.034L83.037 18.49l0.336 -8.741h3.026v14.12h-4.034l-4.707 -8.405 -0.336 8.405h-3.026z" fill="#FCFDFF"/><path d="m36.98 9.749 3.571 -0.084 1.114 -0.037c1.972 -0.023 3.197 0.087 4.727 1.465 0.928 0.977 1.153 1.642 1.156 2.984 -0.047 1.59 -0.408 2.531 -1.492 3.74l-1.008 0.336 2.689 5.715h-3.362l-0.529 -1.017 -0.71 -1.315 -0.346 -0.672c-0.385 -0.73 -0.385 -0.73 -1.104 -1.702l-1.681 -0.336v5.042h-3.026z" fill="#FBFDFF"/><path d="M9.077 9.413h11.094c0 3.362 0 3.362 -0.703 4.443l-0.957 0.915a267.361 267.361 0 0 0 -1.014 1.013l-0.518 0.508c-1.283 1.31 -2.385 2.787 -3.531 4.215l6.723 0.336v3.026H9.077c0 -3.403 0 -3.403 0.873 -4.318l0.561 -0.614 0.603 -0.615 1.204 -1.304 0.589 -0.628c1.048 -1.142 1.963 -2.38 2.894 -3.615l-6.723 -0.336z" fill="#F3F9FF"/><path d="M96.82 9.413c1.211 -0.29 2.164 -0.374 3.362 0 1.134 1.346 1.894 2.807 2.689 4.37l0.336 0.336 0.544 -1.029c1.969 -3.509 1.969 -3.509 3.431 -3.989 0.849 0.016 1.592 0.097 2.413 0.313 -0.614 1.847 -1.764 3.311 -2.901 4.865l-0.454 0.65 -0.419 0.581c-0.368 0.889 -0.204 1.4 0.077 2.308 0.368 0.722 0.368 0.722 0.842 1.403l0.502 0.76 0.527 0.778q0.516 0.774 1.031 1.549l0.463 0.687c0.333 0.538 0.333 0.538 0.333 0.874 -1.319 0.284 -2.393 0.378 -3.698 0 -1.161 -1.338 -1.926 -2.779 -2.689 -4.37 -0.844 1.008 -1.494 1.948 -2.059 3.131 -0.416 0.7 -0.416 0.7 -0.966 1.239 -1.152 0.232 -2.203 0.162 -3.362 0 0.613 -1.853 1.778 -3.316 2.931 -4.865 0.915 -1.227 0.915 -1.227 0.975 -2.684l-0.543 -0.856 -0.377 -0.622c-0.59 -0.967 -1.207 -1.916 -1.823 -2.868l-0.451 -0.706 -0.413 -0.64c-0.298 -0.542 -0.298 -0.542 -0.298 -1.215" fill="#F5FAFF"/><path d="M23.869 9.749h9.413v2.689h-6.387v3.026h5.379v2.353h-5.379v3.362h6.387v2.689H23.869z" fill="#FDFEFF"/><path d="M90.097 9.413h3.362v14.456h-3.362z" fill="#F3F9FF"/><path d="M65.22 12.102c0.865 0.731 1.509 1.338 2.018 2.353 0.17 2.177 0.305 4.203 -1.008 6.052 -1.183 0.788 -1.633 0.868 -3.026 0.673 -1.043 -0.857 -1.589 -1.404 -2.018 -2.689a33.762 33.762 0 0 1 -0.084 -1.975l-0.026 -1.048c0.127 -1.159 0.426 -1.763 1.119 -2.692 1.183 -0.788 1.633 -0.868 3.026 -0.673" fill="#1D92FF"/><path d="M51.1 9.749h3.026v14.12H51.1z" fill="#FFFFFF"/><path d="M40.006 12.439c2.763 -0.122 2.763 -0.122 3.887 0.4 0.484 0.609 0.484 0.609 0.631 1.449 -0.175 0.998 -0.356 1.246 -1.156 1.849 -0.834 0.099 -0.834 0.099 -1.744 0.063l-1.618 -0.063z" fill="#1C92FF"/></svg>